<svg width="8" height="4" viewBox="0 0 8 4" fill="none" xmlns="http://www.w3.org/2000/svg">
<path fill-rule="evenodd" clip-rule="evenodd" d="M1.33341 0C1.7016 0 2.00008 0.298477 2.00008 0.666667C2.00008 1.1971 2.21079 1.70581 2.58587 2.08088C2.96094 2.45595 3.46965 2.66667 4.00008 2.66667C4.53051 2.66667 5.03922 2.45595 5.41429 2.08088C5.78937 1.70581 6.00008 1.1971 6.00008 0.666667C6.00008 0.298477 6.29856 0 6.66675 0C7.03494 0 7.33341 0.298477 7.33341 0.666667C7.33341 1.55072 6.98222 2.39857 6.3571 3.02369C5.73198 3.64881 4.88414 4 4.00008 4C3.11603 4 2.26818 3.64881 1.64306 3.02369C1.01794 2.39857 0.666748 1.55072 0.666748 0.666667C0.666748 0.298477 0.965225 0 1.33341 0Z" fill="#313237"/>
</svg>
